<?xml version="1.0" encoding="utf-8"?>
<svg xmlns="http://www.w3.org/2000/svg" viewBox="0 0 24 20" width="1000px" height="1000px">
  <g id="Extensions/Software/Cloud-Data-Block" stroke="none" stroke-width="1" fill="none" fill-rule="evenodd" stroke-opacity="0.15" transform="matrix(0.7198179960250852, 0, 0, 0.7198179960250853, -2.4213079879651214, -3.7958749899341333)" style="">
    <path d="M8.79318616,28.1151638 L31.6876989,28.1151638 C33.7872628,28.1151638 35.5,26.367812 35.5,24.205767 C35.5,22.0457656 33.7861205,20.2963702 31.6876989,20.2963702 C31.0949151,20.2963702 30.5289275,20.4344685 30.0095753,20.6985405 L29.149028,21.136098 L29.2881766,20.1807783 C29.2946075,20.1366272 29.298841,20.0905134 29.3013901,20.0383827 C29.304279,19.9793044 29.3048852,19.9290931 29.3048852,19.8075819 C29.3048852,15.2142563 25.6733301,11.5 21.1912477,11.5 C18.7336811,11.5 16.4540186,12.627613 14.919198,14.5388364 L14.6395477,14.8870688 L14.2620843,14.64834 C13.7577046,14.3293423 13.1846469,14.1619751 12.5776103,14.1619751 C10.7696196,14.1619751 9.29318616,15.6720832 9.29318616,17.5332109 C9.29318616,17.9287467 9.35465627,18.2911027 9.47936861,18.6253403 L9.78978091,19.4572664 L8.91747388,19.2913226 C8.91297341,19.2904665 8.89875205,19.289116 8.87708814,19.2882944 C8.85627388,19.287505 8.83993475,19.287347 8.79318616,19.2873183 C6.42564931,19.2873183 4.5,21.2638832 4.5,23.7028427 C4.5,26.147236 6.42155665,28.1151638 8.79318616,28.1151638 Z" id="Fill-1" style="fill: rgb(255, 255, 255); stroke: rgb(0, 0, 0); stroke-opacity: 1;"/>
  </g>
  <path fill-rule="evenodd" clip-rule="evenodd" d="M 10.887 12.344 C 11.057 12.173 11.057 11.896 10.887 11.725 C 10.408 11.247 10.408 10.47 10.887 9.992 L 12.356 8.522 C 13.025 7.855 14.163 8.161 14.409 9.072 C 14.523 9.494 14.4 9.947 14.091 10.257 L 13.636 10.71 C 13.398 10.949 13.508 11.354 13.833 11.441 C 13.982 11.481 14.144 11.438 14.255 11.327 L 14.709 10.873 C 15.851 9.731 15.329 7.779 13.766 7.361 C 13.043 7.167 12.269 7.374 11.739 7.905 L 10.269 9.374 C 9.448 10.194 9.448 11.524 10.269 12.344 C 10.439 12.514 10.716 12.514 10.887 12.344 Z M 11.739 10.257 C 11.569 10.426 11.569 10.705 11.739 10.873 C 12.217 11.352 12.217 12.13 11.739 12.609 L 10.283 14.063 C 9.626 14.741 8.481 14.451 8.224 13.543 C 8.102 13.11 8.226 12.643 8.551 12.329 L 8.977 11.902 C 9.214 11.665 9.106 11.259 8.781 11.173 C 8.63 11.132 8.47 11.175 8.359 11.286 L 7.933 11.712 C 6.791 12.854 7.313 14.804 8.874 15.223 C 9.598 15.418 10.372 15.21 10.902 14.681 L 12.356 13.224 C 13.177 12.405 13.177 11.076 12.356 10.257 C 12.186 10.085 11.91 10.085 11.739 10.257 Z" fill="#000000" style="" transform="matrix(0.9999999999999999, 0, 0, 0.9999999999999999, 0, -4.440892098500626e-16)"/>
</svg>